<svg version="1.1" id="Layer_1" xmlns="http://www.w3.org/2000/svg" xmlns:xlink="http://www.w3.org/1999/xlink" x="0px" y="0px"
	 width="100%" viewBox="0 0 668 147" enable-background="new 0 0 668 147" xml:space="preserve">
<path fill="#FFFFFF" opacity="1.000000" stroke="none" 
	d="
M1.375982,61.083031 
	C1.000000,42.069530 1.078452,23.138386 0.915169,4.209326 
	C0.890760,1.379598 1.564037,0.902646 4.268214,0.923744 
	C22.865437,1.068840 41.464329,1.000000 60.531342,1.000000 
	C60.206688,4.166743 57.177361,3.757805 55.060295,4.389271 
	C41.660770,8.386006 44.585930,8.838958 44.294800,19.160809 
	C44.219791,21.820044 44.346657,24.485264 44.268669,27.144180 
	C44.177185,30.263500 45.275204,30.545263 47.767891,28.996508 
	C56.334831,23.673706 65.639320,21.603142 75.783035,21.578869 
	C89.618294,21.545761 100.940781,26.915825 110.995415,35.749043 
	C115.501808,39.708008 115.391022,39.793930 120.251961,35.959274 
	C122.082870,34.514915 123.795403,32.938061 125.572784,31.434753 
	C129.553970,28.067469 129.708832,26.038185 125.930016,22.535381 
	C116.767738,14.042326 106.348557,7.699945 94.204193,4.362024 
	C92.014969,3.760306 89.524139,3.752509 87.950882,1.369291 
	C280.037689,1.000000 472.075378,1.021938 664.112915,0.865990 
	C668.637939,0.862316 669.131775,2.164247 669.095398,6.107183 
	C668.895386,27.757462 669.000000,49.410557 669.000000,71.531342 
	C668.781677,72.124039 668.563416,72.248070 667.983276,72.271896 
	C666.591064,71.546310 666.018005,70.542801 665.414673,69.551636 
	C655.977722,54.049232 636.046265,53.981358 625.911377,69.712494 
	C624.982910,70.919418 624.250916,71.828049 624.338562,73.468048 
	C624.325562,75.833511 624.327393,77.832848 624.336853,79.832100 
	C624.402466,93.618805 633.375000,102.196747 647.247131,101.571136 
	C651.952515,101.358932 656.495178,100.264397 660.501160,97.605888 
	C662.253601,96.442894 664.818420,95.317566 662.841980,92.653572 
	C661.153809,90.378159 659.453552,87.233002 655.625000,89.455544 
	C653.883728,90.466377 652.061584,91.260643 650.113098,91.767448 
	C646.583069,92.685600 643.514893,91.628426 640.783752,89.450027 
	C639.303650,88.269440 638.095947,86.704361 638.728271,84.709526 
	C639.346130,82.760124 641.317627,82.767662 642.941772,82.753654 
	C650.934814,82.684731 658.930664,82.428703 667.303772,82.995972 
	C667.916016,83.238914 668.145508,83.372505 668.687500,83.753052 
	C669.000000,103.986511 668.903503,123.973946 669.094971,143.958618 
	C669.126892,147.292236 668.555664,148.106064 665.045715,148.101013 
	C576.105896,147.972717 487.165894,148.000000 398.225922,148.000000 
	C293.796387,148.000000 189.366852,148.000000 84.468658,148.000000 
	C84.543854,145.005219 87.255783,145.554077 89.104279,145.181534 
	C101.831787,142.616257 112.972107,136.949829 122.782829,128.528488 
	C124.175682,127.332878 125.514160,126.089386 126.818741,124.799942 
	C128.722397,122.918365 128.966248,121.063644 126.729790,119.328789 
	C123.829292,117.078835 121.181793,114.540062 118.393494,112.163063 
	C115.549080,109.738205 113.280640,110.116615 110.605354,112.656479 
	C103.310951,119.581673 94.651901,124.262085 84.750099,126.000824 
	C62.733494,129.866913 45.197887,122.095444 31.845577,104.520058 
	C24.726963,95.149963 21.903013,84.226395 21.744055,72.654480 
	C21.531397,57.173187 21.701296,41.686848 21.684145,26.072655 
	C19.957558,25.808979 19.601923,27.158205 18.969440,27.945972 
	C12.094147,36.509254 7.127044,46.041470 4.480404,56.738762 
	C4.045149,58.497993 3.869668,60.435600 1.375982,61.083031 
z"/>
<path fill="#49BCE2" opacity="1.000000" stroke="none" 
	d="
M1.000000,61.468651 
	C2.703061,60.393353 2.727457,58.978951 3.063695,57.448708 
	C6.024237,43.975113 12.693803,32.496254 22.005774,22.389740 
	C23.691008,23.503323 22.955624,24.962097 22.960190,26.129982 
	C23.020065,41.438984 23.007244,56.748306 22.997929,72.057541 
	C22.988930,86.845818 27.878859,99.964767 38.173447,110.387344 
	C46.083839,118.396080 55.944572,123.417068 67.502289,125.109451 
	C84.865623,127.651955 99.090302,121.856964 111.339676,110.077019 
	C113.576653,107.925781 115.038948,107.496422 117.489319,109.850983 
	C121.034767,113.257797 125.013245,116.217186 128.840637,119.326042 
	C130.846985,120.955734 131.345490,122.233635 129.159897,124.447250 
	C116.732933,137.033478 101.941978,144.840515 84.193497,147.655609 
	C76.645752,148.000000 69.291496,148.000000 61.468620,148.000000 
	C53.841297,146.061874 46.765549,144.003540 40.121391,140.511078 
	C20.838781,130.375366 8.535293,114.727707 2.486938,93.939064 
	C1.877605,91.844742 2.423234,89.604912 1.221886,87.300125 
	C1.000000,78.645767 1.000000,70.291534 1.000000,61.468651 
z"/>
<path fill="#49BCE2" opacity="1.000000" stroke="none" 
	d="
M87.531342,1.000000 
	C96.216606,3.943943 104.845726,5.809565 112.317322,10.678743 
	C118.494888,14.704609 124.577705,18.730476 129.353012,24.552193 
	C131.625748,27.322966 130.520340,29.106092 128.606171,30.809277 
	C124.801926,34.194229 120.675125,37.221165 116.928307,40.664482 
	C114.692345,42.719318 114.022766,40.507851 113.139671,39.561531 
	C106.119232,32.038509 97.683754,26.430725 87.771507,24.230366 
	C73.545670,21.072458 59.599537,22.250914 47.120872,30.961418 
	C46.186600,31.613569 45.186455,32.172573 44.203152,32.751476 
	C44.096954,32.814003 43.898407,32.719662 43.033791,32.599850 
	C43.033791,25.007099 42.838261,17.289593 43.115520,9.589108 
	C43.256104,5.684605 47.300022,5.793227 49.822212,4.759020 
	C53.269352,3.345542 57.018242,2.667952 60.818890,1.337456 
	C69.687561,1.000000 78.375130,1.000000 87.531342,1.000000 
z"/>
<path fill="#FFC10E" opacity="1.000000" stroke="none" 
	d="
M624.766846,70.118942 
	C627.208557,62.184265 635.621765,57.522076 642.991882,56.982464 
	C654.509644,56.139175 663.253601,59.979656 667.898071,71.568390 
	C669.098083,72.980659 667.646057,74.423988 668.774841,75.770142 
	C669.000000,78.041664 669.000000,80.083336 669.000000,82.562500 
	C668.856506,83.162086 668.713074,83.324181 668.295288,83.659821 
	C658.545044,83.833366 649.069214,83.833366 639.539856,83.833366 
	C640.589050,91.021095 648.402893,93.104576 655.103394,88.411438 
	C656.278198,87.588562 657.125610,84.801331 658.966858,86.657700 
	C661.463623,89.174957 664.999756,90.926735 665.898926,94.778839 
	C666.006165,95.238564 665.462585,96.054863 664.995972,96.413773 
	C654.654480,104.368164 640.539429,105.671555 630.055054,97.461601 
	C625.160034,93.628448 622.815979,88.254044 622.989441,81.907616 
	C623.062134,79.246574 623.018982,76.582352 623.097534,73.458862 
	C623.925537,72.270531 623.985107,71.170395 624.766846,70.118942 
z"/>
<path fill="#FFFFFF" opacity="1.000000" stroke="none" 
	d="
M1.000000,87.468658 
	C2.154012,87.468491 2.712233,88.270447 3.008878,89.547028 
	C10.169075,120.360374 29.423214,139.007217 60.075558,146.172729 
	C60.424995,146.254440 60.654041,146.851151 60.969643,147.603729 
	C42.068954,148.000000 23.137222,147.921204 4.207595,148.085083 
	C1.373851,148.109604 0.903654,147.430161 0.924094,144.729874 
	C1.067385,125.799919 1.000000,106.868362 1.000000,87.468658 
z"/>
<path fill="#FFC10E" opacity="1.000000" stroke="none" 
	d="
M669.000000,75.600006 
	C666.015991,75.651619 667.898682,73.837837 668.004761,72.227875 
	C668.042297,71.885475 668.517639,71.971802 668.758789,71.985901 
	C669.000000,73.066673 669.000000,74.133339 669.000000,75.600006 
z"/>
<path fill="#FFC10E" opacity="1.000000" stroke="none" 
	d="
M668.260986,83.902603 
	C668.139587,83.551010 668.329651,83.330078 668.795532,83.085281 
	C669.000000,83.000000 669.000000,83.500000 669.000000,83.750000 
	C669.000000,84.000000 668.501038,83.971848 668.260986,83.902603 
z"/>
<path fill="#49BCE2" opacity="1.000000" stroke="none" 
	d="
M78.677841,105.999039 
	C69.939629,106.564812 62.370613,105.048286 55.369568,100.041954 
	C48.470203,95.108345 44.355007,88.387253 43.223145,80.544891 
	C40.404415,61.014713 49.806759,46.673000 68.526878,42.495472 
	C81.027145,39.705952 94.462593,43.973141 102.835175,57.666260 
	C109.777298,69.019920 107.882797,85.848618 99.162140,95.400223 
	C93.699287,101.383621 87.091812,104.885101 78.677841,105.999039 
z"/>
<path fill="#FFC10E" opacity="1.000000" stroke="none" 
	d="
M197.979691,81.617142 
	C198.017136,96.285194 192.180588,101.998871 177.612946,101.999847 
	C168.948090,102.000435 160.281326,101.897057 151.619476,102.058571 
	C148.825012,102.110672 147.915985,101.338310 147.938232,98.449989 
	C148.066544,81.787796 148.071503,65.123535 147.935898,48.461460 
	C147.911514,45.465164 149.041092,44.912846 151.707657,44.948898 
	C161.370529,45.079536 171.038498,44.869656 180.700287,45.035568 
	C191.332581,45.218143 198.361816,53.877113 195.998062,63.493248 
	C195.069534,67.270653 192.181107,69.362030 189.286438,71.719826 
	C194.107254,73.170967 196.341568,76.905907 197.979691,81.617142 
z"/>
<path fill="#FFC10E" opacity="1.000000" stroke="none" 
	d="
M441.798584,102.772827 
	C446.264709,104.329323 450.259705,106.170738 454.826874,106.039505 
	C461.505249,105.847610 464.681885,102.608459 464.750610,95.512054 
	C455.257172,101.955620 445.100403,101.622780 438.678009,94.071678 
	C431.308350,85.406860 431.282440,73.351425 436.917572,64.869820 
	C442.680023,56.196598 452.671722,53.841255 464.719696,61.053524 
	C464.060394,55.838421 467.645966,57.021664 470.424530,57.010403 
	C479.999939,56.971592 480.000000,56.988209 480.000000,66.563049 
	C480.000000,74.882866 479.517181,83.236588 480.098724,91.515556 
	C481.379120,109.742996 472.653625,119.057487 453.676758,118.101952 
	C449.360687,117.884621 445.219086,117.473610 441.189209,115.973015 
	C439.488159,115.339592 437.840668,114.615501 436.323395,112.997665 
	C435.885376,112.681557 435.770813,112.528633 435.806824,112.131836 
	C436.627014,108.843689 438.430481,106.334633 440.007141,103.322334 
	C440.540314,102.655998 440.983154,102.528160 441.798584,102.772827 
z"/>
<path fill="#FFC10E" opacity="1.000000" stroke="none" 
	d="
M323.000000,97.028816 
	C323.499359,100.732246 322.605652,102.143486 318.843872,102.101807 
	C308.002075,101.981659 307.999969,102.168495 308.000000,91.180473 
	C308.000061,75.850136 308.075684,60.519119 307.937012,45.190037 
	C307.908966,42.089455 308.533203,40.896854 311.977936,40.906044 
	C322.999573,40.935455 323.000000,40.775913 323.000000,51.642220 
	C323.000000,57.614578 323.000000,63.586937 323.000000,69.482018 
	C325.267914,70.348953 326.217133,68.615944 326.800476,67.581268 
	C332.661804,57.185734 341.723541,55.060764 352.781372,57.620426 
	C352.298279,61.732586 348.455475,63.671005 345.936218,66.522476 
	C343.414429,69.376762 339.009369,71.845161 338.593079,74.912079 
	C338.198975,77.815544 341.926544,81.266312 343.811188,84.494003 
	C346.934082,89.842247 350.035858,95.202866 353.132568,100.566345 
	C353.283478,100.827789 353.300995,101.166290 353.519073,101.994804 
	C347.985535,101.994804 342.590637,101.954300 337.197083,102.022484 
	C335.800110,102.040146 335.252899,101.408684 334.647644,100.247269 
	C332.911835,96.916435 330.979218,93.687714 329.105835,90.429260 
	C328.423767,89.242851 328.340881,86.846107 326.732117,87.306068 
	C325.019928,87.795616 323.255890,89.337830 323.049896,91.568810 
	C322.897247,93.221619 323.007080,94.898666 323.000000,97.028816 
z"/>
<path fill="#FFC10E" opacity="1.000000" stroke="none" 
	d="
M530.194458,64.207382 
	C527.944031,62.556019 526.062134,60.978012 524.042542,59.602085 
	C518.449158,55.791393 512.930542,56.935291 507.591217,60.173237 
	C503.667419,62.552784 500.931793,69.722694 501.860779,74.687393 
	C504.595184,89.300903 516.101868,93.466599 528.283081,84.006439 
	C530.427307,82.341202 531.199524,82.664589 532.855896,84.281677 
	C541.411255,92.634163 541.208008,93.669601 530.431580,99.231636 
	C517.729797,105.787384 505.522797,104.786728 494.757568,95.770668 
	C487.270325,89.499954 483.927032,80.444366 485.141144,70.651894 
	C486.940277,56.140553 494.414948,47.587059 508.265503,44.494976 
	C518.708618,42.163597 528.821716,44.271351 537.509277,51.138702 
	C539.395813,52.629978 539.670715,54.422359 538.136597,56.290440 
	C536.054504,58.825829 533.869324,61.276619 531.419861,63.902706 
	C530.907593,64.152122 530.703857,64.262535 530.194458,64.207382 
z"/>
<path fill="#FFC10E" opacity="1.000000" stroke="none" 
	d="
M423.210327,60.706886 
	C427.873077,64.285408 428.651703,69.295578 428.889496,74.128426 
	C429.290100,82.270180 428.914825,90.447342 429.048676,98.606613 
	C429.090302,101.143517 428.417725,101.981110 425.730011,102.074280 
	C412.996735,102.515671 413.000031,102.609665 413.000000,90.073662 
	C413.000000,86.242767 412.913849,82.409416 413.023529,78.581665 
	C413.137939,74.589485 411.603058,71.846367 407.541779,71.054489 
	C403.198761,70.207687 400.527069,72.742081 399.094574,76.301384 
	C396.864380,81.842575 398.178680,87.767204 398.049286,93.518913 
	C397.858459,101.999077 398.000000,102.002251 389.324066,102.000015 
	C388.491272,101.999802 387.641724,101.892288 386.828613,102.018738 
	C383.731750,102.500343 382.887024,101.234695 382.929138,98.160484 
	C383.100189,85.670784 383.067444,73.176720 382.947144,60.685837 
	C382.921173,57.990891 383.481445,56.651077 386.483795,56.954422 
	C388.792053,57.187641 391.175537,57.247288 393.467133,56.943420 
	C397.102997,56.461292 398.774475,57.687210 397.949188,61.947884 
	C406.328766,56.790226 414.453522,54.065205 423.210327,60.706886 
z"/>
<path fill="#FFC10E" opacity="1.000000" stroke="none" 
	d="
M201.990875,84.033661 
	C199.567184,74.642311 203.451996,65.289215 211.558990,60.359814 
	C221.162659,54.520390 236.856232,55.556507 244.746979,64.262833 
	C251.184509,71.365753 251.314743,79.806816 248.906998,88.275452 
	C246.592697,96.415375 240.403137,100.388123 232.200699,102.095757 
	C222.490036,104.117378 213.968002,102.440186 206.965591,95.335220 
	C204.112015,92.439850 202.043961,88.818176 201.990875,84.033661 
z"/>
<path fill="#FFC10E" opacity="1.000000" stroke="none" 
	d="
M577.025208,102.000000 
	C574.018372,100.983170 570.108459,104.329819 568.765076,99.543015 
	C567.575256,100.015259 566.368103,100.448257 565.198547,100.966255 
	C558.494019,103.935585 551.803223,104.305336 545.607422,99.974190 
	C541.112549,96.832085 539.082092,88.773643 541.357361,83.303627 
	C543.771545,77.499420 548.897827,75.370590 554.791870,75.045547 
	C558.935913,74.817017 563.102783,75.001396 567.284729,75.001396 
	C566.310547,69.073433 563.184753,67.427872 556.436157,69.282539 
	C554.248535,69.883743 552.090637,70.647888 549.998352,71.526093 
	C547.769348,72.461632 546.770752,71.739182 545.959290,69.546333 
	C542.594910,60.455200 541.586853,61.994858 550.893372,58.969707 
	C558.701660,56.431606 566.531311,55.686718 574.422180,58.830650 
	C581.060242,61.475422 583.962036,66.471367 583.992737,73.379944 
	C584.025269,80.703064 584.000305,88.026451 583.999878,95.349716 
	C583.999451,101.994034 583.999084,101.994034 577.025208,102.000000 
z"/>
<path fill="#FFC10E" opacity="1.000000" stroke="none" 
	d="
M259.285645,96.778824 
	C251.717743,89.449295 251.555496,80.484886 253.932129,71.808945 
	C256.628845,61.964561 264.993500,57.370068 275.298798,57.022442 
	C285.879608,56.665524 295.313751,59.547001 299.420532,70.151848 
	C304.454498,83.150925 300.042816,99.166481 283.063019,102.139397 
	C274.268951,103.679115 266.653015,102.133774 259.285645,96.778824 
z"/>
<path fill="#FFC10E" opacity="1.000000" stroke="none" 
	d="
M607.000000,89.054230 
	C607.000000,90.041695 607.000000,90.540871 607.000000,91.040039 
	C607.000000,102.972069 607.004517,102.907578 594.824402,102.057915 
	C592.688477,101.908913 591.952820,101.332596 591.965332,99.168037 
	C592.040771,86.023651 592.000244,72.878616 592.011292,59.733810 
	C592.011841,59.077595 591.939392,57.952980 592.225098,57.835602 
	C596.509277,56.075726 601.007324,57.176754 605.409241,57.114395 
	C608.166931,57.075329 606.460022,59.699226 607.089783,60.985889 
	C607.221130,61.254436 607.414368,61.492706 607.810364,62.099014 
	C610.938171,59.469444 614.345581,57.377598 618.514709,56.992748 
	C620.871643,56.775181 622.427429,57.245007 622.028992,60.144157 
	C621.849426,61.450535 621.906433,62.809994 622.017090,64.131889 
	C622.371948,68.371292 622.550659,71.536324 616.233948,71.291214 
	C610.775391,71.079407 607.405212,76.162407 607.021240,82.577011 
	C606.902161,84.566620 607.000916,86.569260 607.000000,89.054230 
z"/>
<path fill="#FFC10E" opacity="1.000000" stroke="none" 
	d="
M373.000000,94.919807 
	C372.995026,101.998924 372.995026,101.998924 366.438446,102.000008 
	C358.000031,102.001389 357.999969,102.001389 358.000000,93.790947 
	C358.000031,82.805466 358.111450,71.818138 357.928741,60.835701 
	C357.877594,57.759506 358.742828,56.933998 361.824432,56.917671 
	C373.000671,56.858471 373.000000,56.731441 373.000000,67.965118 
	C373.000000,76.786781 373.000000,85.608452 373.000000,94.919807 
z"/>
<path fill="#FFC10E" opacity="1.000000" stroke="none" 
	d="
M362.222778,53.060982 
	C356.748138,48.627079 355.835144,44.542053 359.050873,40.473408 
	C362.176910,36.518234 366.027527,35.765320 370.299835,38.803440 
	C373.583679,41.138645 375.093597,44.324036 373.146118,48.492298 
	C370.914490,53.268749 367.871857,54.710876 362.222778,53.060982 
z"/>
<path fill="#FFC10E" opacity="1.000000" stroke="none" 
	d="
M624.590942,69.945526 
	C624.917236,71.001137 625.278259,72.268356 623.503784,72.929291 
	C623.183228,71.882217 622.305847,70.450394 624.590942,69.945526 
z"/>
<path fill="#FFC10E" opacity="1.000000" stroke="none" 
	d="
M441.982178,102.680008 
	C441.679718,102.970955 441.246948,102.984146 440.489807,102.999123 
	C440.343750,101.720093 441.066437,101.972786 441.982178,102.680008 
z"/>
<path fill="#FFC10E" opacity="1.000000" stroke="none" 
	d="
M529.986206,64.286743 
	C530.092468,64.034653 530.296082,64.027481 530.805542,64.031006 
	C530.893005,64.465645 530.775208,65.100334 529.986206,64.286743 
z"/>
<path fill="#FFC10E" opacity="1.000000" stroke="none" 
	d="
M435.717529,111.983040 
	C435.957428,111.887962 435.986420,112.361008 435.993164,112.597748 
	C435.436981,112.850891 434.966644,112.803322 435.717529,111.983040 
z"/>
<path fill="#FFFFFF" opacity="1.000000" stroke="none" 
	d="
M639.731323,71.787384 
	C646.167969,65.796303 650.589661,66.817955 653.496765,74.998924 
	C649.124817,74.998924 644.879944,74.900749 640.642029,75.029526 
	C637.159485,75.135345 639.062378,73.358879 639.731323,71.787384 
z"/>
<path fill="#FFFFFF" opacity="1.000000" stroke="none" 
	d="
M93.887909,78.691795 
	C90.713081,80.956627 87.344963,79.785225 84.115936,79.926041 
	C81.767570,80.028442 80.733368,80.734550 80.989372,83.113060 
	C81.077812,83.934731 81.001480,84.774178 80.999969,85.605499 
	C80.983742,94.553253 80.987656,94.469818 72.187729,94.053940 
	C69.918198,93.946678 68.944290,93.415817 68.942795,90.959900 
	C68.940697,87.510818 70.441971,83.150963 68.298828,80.842079 
	C66.104607,78.478180 61.689293,80.065872 58.266041,80.075935 
	C55.531651,80.083961 54.708305,79.010933 54.990414,76.535156 
	C55.065216,75.878685 54.990631,75.206169 55.001545,74.541290 
	C55.126038,66.957512 54.050335,68.128891 61.672474,68.002647 
	C62.836021,67.983376 64.018837,67.865746 65.160423,68.025101 
	C68.282394,68.460930 69.460594,67.132454 69.009666,64.107597 
	C68.936928,63.619667 68.998810,63.111526 69.000122,62.612732 
	C69.020218,54.967609 71.343857,53.305637 79.102097,54.968605 
	C81.391151,55.459263 80.914429,56.926537 80.990410,58.321629 
	C81.495232,67.591492 81.485718,67.738380 90.521248,67.918877 
	C93.514786,67.978668 94.247490,69.084396 94.032211,71.749199 
	C93.858665,73.897369 93.977074,76.069122 93.887909,78.691795 
z"/>
<path fill="#FFFFFF" opacity="1.000000" stroke="none" 
	d="
M179.891479,88.008621 
	C176.098999,90.188194 172.292603,89.741272 168.559235,90.094498 
	C163.988297,90.526970 162.884171,88.954491 162.806763,84.447937 
	C162.724777,79.675293 164.344437,78.423653 168.668121,78.950882 
	C170.954651,79.229691 173.311966,78.870682 175.621506,79.029549 
	C181.311310,79.420929 183.073639,82.848030 179.891479,88.008621 
z"/>
<path fill="#FFFFFF" opacity="1.000000" stroke="none" 
	d="
M177.054504,57.556263 
	C180.385864,58.459347 180.273102,60.784981 179.886459,62.927856 
	C179.477570,65.194077 177.878174,66.778992 175.544693,66.917786 
	C172.059509,67.125076 168.511246,67.321053 165.066971,66.896271 
	C160.938736,66.387146 163.588516,62.922523 163.115448,60.870285 
	C162.782501,59.425915 162.086639,56.914745 165.264069,57.006638 
	C169.082947,57.117081 172.902893,57.190472 177.054504,57.556263 
z"/>
<path fill="#FFFFFF" opacity="1.000000" stroke="none" 
	d="
M448.567383,74.925491 
	C451.222626,69.741676 454.794922,67.861549 458.828766,69.352310 
	C463.157318,70.952003 465.306152,76.043701 463.978943,81.555878 
	C462.905212,86.015381 459.375977,88.285614 454.885040,88.060188 
	C450.626617,87.846428 446.483551,81.263039 448.567383,74.925491 
z"/>
<path fill="#FFFFFF" opacity="1.000000" stroke="none" 
	d="
M217.000458,80.830017 
	C217.180878,73.725143 220.624603,69.784119 226.100128,70.000824 
	C231.169891,70.201477 235.681213,74.829597 234.892151,79.885849 
	C233.823624,86.732925 231.479095,90.827774 224.281479,89.890388 
	C219.675171,89.290482 217.530060,85.734116 217.000458,80.830017 
z"/>
<path fill="#FFFFFF" opacity="1.000000" stroke="none" 
	d="
M560.977478,91.998596 
	C557.278931,92.016747 554.894348,90.393570 555.215637,87.130653 
	C555.511719,84.124352 558.362610,83.776131 561.018311,83.989746 
	C561.842285,84.056030 562.700989,83.871315 563.500366,84.026115 
	C565.299194,84.374481 568.217163,82.856979 568.694153,85.103172 
	C569.247131,87.707626 567.299744,89.911758 564.642273,91.153519 
	C563.564148,91.657288 562.568359,92.090508 560.977478,91.998596 
z"/>
<path fill="#FFFFFF" opacity="1.000000" stroke="none" 
	d="
M280.256592,89.865776 
	C270.507782,90.072670 266.141876,84.759254 268.847565,76.558899 
	C270.659943,71.065979 274.510712,68.754974 279.718719,70.034691 
	C283.481384,70.959259 286.834198,77.762032 285.893768,82.257202 
	C285.203766,85.555367 282.977142,87.670341 280.256592,89.865776 
z"/>
</svg>